<svg xmlns="http://www.w3.org/2000/svg" xmlns:xlink="http://www.w3.org/1999/xlink" width="194.743" height="194.743" viewBox="0 0 194.743 194.743">
  <defs>
    <clipPath id="clip-path">
      <path id="path254" d="M752.137-438.831a97.372,97.372,0,0,0,97.372,97.373h0a97.372,97.372,0,0,0,97.372-97.373h0a97.371,97.371,0,0,0-97.372-97.37h0a97.371,97.371,0,0,0-97.372,97.37"/>
    </clipPath>
    <clipPath id="clip-path-2">
      <path id="path274" d="M771.594-462.811h3.947v3.947h-3.947Z"/>
    </clipPath>
    <clipPath id="clip-path-3">
      <path id="path294" d="M805.675-462.811h3.945v3.947h-3.945Z"/>
    </clipPath>
    <clipPath id="clip-path-4">
      <path id="path314" d="M783.363-439.555h16.528v4.2H783.363Z"/>
    </clipPath>
    <clipPath id="clip-path-5">
      <path id="path342" d="M790.321-462.73h4.157v10.721h-4.157Z"/>
    </clipPath>
    <clipPath id="clip-path-6">
      <path id="path430" d="M813.539-387.2h3.735v12.7h-3.735Z"/>
    </clipPath>
    <clipPath id="clip-path-7">
      <path id="path446" d="M766.181-386.414H769.9v12.892h-3.715Z"/>
    </clipPath>
    <clipPath id="clip-path-8">
      <path id="path478" d="M935.887-387.2h3.735v12.7h-3.735Z"/>
    </clipPath>
    <clipPath id="clip-path-9">
      <path id="path494" d="M888.529-386.414h3.715v12.892h-3.715Z"/>
    </clipPath>
    <clipPath id="clip-path-10">
      <path id="path518" d="M893.73-462.356h3.947v3.947H893.73Z"/>
    </clipPath>
    <clipPath id="clip-path-11">
      <path id="path538" d="M927.811-462.356h3.947v3.947h-3.947Z"/>
    </clipPath>
    <clipPath id="clip-path-12">
      <path id="path558" d="M905.5-439.1h16.527v4.2H905.5Z"/>
    </clipPath>
    <clipPath id="clip-path-13">
      <path id="path586" d="M912.458-462.274h4.157v10.72h-4.157Z"/>
    </clipPath>
    <clipPath id="clip-path-14">
      <path id="path678" d="M830.674-474.324h4.437v4.437h-4.437Z"/>
    </clipPath>
    <clipPath id="clip-path-15">
      <path id="path698" d="M868.994-474.324h4.437v4.437h-4.437Z"/>
    </clipPath>
    <clipPath id="clip-path-16">
      <path id="path718" d="M843.907-448.175H862.49v4.727H843.907Z"/>
    </clipPath>
    <clipPath id="clip-path-17">
      <path id="path746" d="M848.719-474.129h4.675v12.055h-4.675Z"/>
    </clipPath>
    <clipPath id="clip-path-18">
      <path id="path778" d="M833.054-496.429h38.57v16.7h-38.57Z"/>
    </clipPath>
    <clipPath id="clip-path-19">
      <path id="path838" d="M876.856-393.722h4.065V-379.9h-4.065Z"/>
    </clipPath>
    <clipPath id="clip-path-20">
      <path id="path854" d="M825.317-392.864h4.043v14.029h-4.043Z"/>
    </clipPath>
  </defs>
  <g id="distance" transform="translate(-752.137 536.201)">
    <g id="g252" clip-path="url(#clip-path)">
      <g id="g262" transform="translate(789.045 -497.861)">
        <path id="path264" d="M0,0S-28.169-1.065-25.276,45.68c2.415,39.037-6.168,48.651-6.168,48.651l66.009.989s-7.613-41.188-6.243-50.1S34.869.305,0,0" fill="#232637"/>
      </g>
      <g id="g266" transform="translate(778.044 -460.41)">
        <path id="path268" d="M0,0A4.1,4.1,0,0,1-4.508,3.652,4.1,4.1,0,0,1-8.159-.856,4.1,4.1,0,0,1-3.651-4.507,4.1,4.1,0,0,1,0,0" fill="#f4b799"/>
      </g>
      <g id="g270">
        <g id="g284">
          <g id="g282" opacity="0.6" clip-path="url(#clip-path-2)">
            <g id="g280" transform="translate(775.541 -460.838)">
              <path id="path278" d="M0,0A1.974,1.974,0,0,1-1.973,1.973,1.973,1.973,0,0,1-3.947,0,1.973,1.973,0,0,1-1.973-1.973,1.974,1.974,0,0,1,0,0"/>
            </g>
          </g>
        </g>
      </g>
      <g id="g286" transform="translate(811.475 -460.41)">
        <path id="path288" d="M0,0A4.1,4.1,0,0,1-4.507,3.651,4.1,4.1,0,0,1-8.157-.856,4.1,4.1,0,0,1-3.651-4.508,4.1,4.1,0,0,1,0,0" fill="#f4b799"/>
      </g>
      <g id="g290">
        <g id="g304">
          <g id="g302" opacity="0.6" clip-path="url(#clip-path-3)">
            <g id="g300" transform="translate(809.622 -460.838)">
              <path id="path298" d="M0,0A1.974,1.974,0,0,1-1.973,1.973,1.973,1.973,0,0,1-3.947,0,1.973,1.973,0,0,1-1.973-1.973,1.974,1.974,0,0,1,0,0"/>
            </g>
          </g>
        </g>
      </g>
      <g id="g306" transform="translate(791.507 -420.578)">
        <path id="path308" d="M0,0H0A8.259,8.259,0,0,1-8.207-8.313l.084-13.172L8.4-21.379,8.313-8.207A8.26,8.26,0,0,1,0,0" fill="#f4b799"/>
      </g>
      <g id="g310">
        <g id="g324">
          <g id="g322" opacity="0.6" clip-path="url(#clip-path-4)">
            <g id="g320" transform="translate(783.364 -438.715)">
              <path id="path318" d="M0,0A16.326,16.326,0,0,0,16.528-.84l-.016,2.248S7.165,6.635,0,0"/>
            </g>
          </g>
        </g>
      </g>
      <g id="g326" transform="translate(802.219 -482.486)">
        <path id="path328" d="M0,0C-8.615-9.577-24.559-5.147-27.288,7.443A51.412,51.412,0,0,0-28,27.127c2.845,15.8,13.024,22.248,24.107,16.741S7.691,15.805,3.755,6.033A20.4,20.4,0,0,0,0,0" fill="#f4b799"/>
      </g>
      <g id="g330" transform="translate(797.572 -449.7)">
        <path id="path332" d="M0,0A36.968,36.968,0,0,1-13.363.291s1.268,5.9,6.809,5.765A6.692,6.692,0,0,0,0,0" fill="#b22828"/>
      </g>
      <g id="g334" transform="translate(790.804 -446.723)">
        <path id="path336" d="M0,0C-4.259.092-5.548-1.647-6.105-2.6c5.02.877,9.035.2,12.535-.309C6.075-1.831,4.016-.087,0,0" fill="#fff"/>
      </g>
      <g id="g338">
        <g id="g352">
          <g id="g350" clip-path="url(#clip-path-5)">
            <g id="g348" transform="translate(790.69 -462.423)">
              <path id="path346" d="M0,0A7.443,7.443,0,0,0,1.4,4.3c.657.731,1.628,1.235,1.967,2.157A2.452,2.452,0,0,1,2.563,9.04,5.141,5.141,0,0,1-.063,10.109" fill="none" stroke="#000" stroke-linecap="round" stroke-linejoin="round" stroke-miterlimit="10" stroke-width="0.611"/>
            </g>
          </g>
        </g>
      </g>
      <g id="g354" transform="translate(785.705 -461.555)">
        <path id="path356" d="M0,0C0,1.107-.671,2-1.5,2s-1.5-.9-1.5-2,.669-2,1.5-2S0-1.107,0,0" fill="#32324c"/>
      </g>
      <g id="g358" transform="translate(796.132 -461.555)">
        <path id="path360" d="M0,0C0,1.107.669,2,1.5,2s1.5-.9,1.5-2S2.325-2,1.5-2,0-1.107,0,0" fill="#32324c"/>
      </g>
      <g id="g362" transform="translate(777.415 -456.199)">
        <path id="path364" d="M0,0S19.916,1.948,27.528-.353c0,0-1.969,11.816-1.439,13.676,0,0-11.559,16.729-24.629.265C1.46,13.588.427,1.432,0,0" fill="#fcfcfc"/>
      </g>
      <g id="g366" transform="translate(808.409 -465.272)">
        <path id="path368" d="M0,0-3.88,9.265" fill="none" stroke="#fcfcfc" stroke-linecap="round" stroke-linejoin="round" stroke-miterlimit="10" stroke-width="0.532"/>
      </g>
      <g id="g370" transform="translate(773.482 -465.272)">
        <path id="path372" d="M0,0,4.285,9.635" fill="none" stroke="#fcfcfc" stroke-linecap="round" stroke-linejoin="round" stroke-miterlimit="10" stroke-width="0.532"/>
      </g>
      <g id="g374" transform="translate(807.997 -456.834)">
        <path id="path376" d="M0,0S-.877,10.017-4.795,13.941" fill="none" stroke="#fcfcfc" stroke-linecap="round" stroke-linejoin="round" stroke-miterlimit="10" stroke-width="0.532"/>
      </g>
      <g id="g378" transform="translate(773.962 -456.834)">
        <path id="path380" d="M0,0S1.469,10.387,5.385,14.311" fill="none" stroke="#fcfcfc" stroke-linecap="round" stroke-linejoin="round" stroke-miterlimit="10" stroke-width="0.532"/>
      </g>
      <g id="g382" transform="translate(780.379 -452.894)">
        <path id="path384" d="M0,0S13.1,3.141,21.775-.088C21.775-.088,12.3,5.975,0,0" fill="#e5e5e5"/>
      </g>
      <g id="g386" transform="translate(781.663 -448.881)">
        <path id="path388" d="M0,0S10.969,2.631,18.233-.075C18.233-.075,10.3,5,0,0" fill="#e5e5e5"/>
      </g>
      <g id="g390" transform="translate(782.769 -444.826)">
        <path id="path392" d="M0,0S10.172,2.44,16.908-.068c0,0-7.355,4.707-16.908.068" fill="#e5e5e5"/>
      </g>
      <g id="g394" transform="translate(787.523 -488.269)">
        <path id="path396" d="M0,0S8.071,17.359,23.449,17.664C23.449,17.664,25.276-8.375,0,0" fill="#232637"/>
      </g>
      <g id="g398" transform="translate(794.708 -488.269)">
        <path id="path400" d="M0,0S-8.071,17.359-23.449,17.664c0,0-1.827-26.039,23.449-17.664" fill="#232637"/>
      </g>
      <g id="g402" transform="translate(802.547 -464.428)">
        <path id="path404" d="M0,0A6.573,6.573,0,0,0-3.248-3.631a6.142,6.142,0,0,0-4.629-.141.8.8,0,0,0-.475.932.8.8,0,0,0,1.029.573C-5.911-2.728-2.868-3.176,0,0" fill="#32324c"/>
      </g>
      <g id="g406" transform="translate(779.84 -464.428)">
        <path id="path408" d="M0,0A6.573,6.573,0,0,1,3.248-3.631a6.142,6.142,0,0,1,4.629-.141.8.8,0,0,1,.476.932.8.8,0,0,1-1.031.573C5.911-2.728,2.868-3.176,0,0" fill="#32324c"/>
      </g>
      <g id="g410" transform="translate(819.827 -321.249)">
        <path id="path412" d="M0,0A72.671,72.671,0,0,1-16.084,6.42,47.3,47.3,0,0,1-28.111,7.887a46,46,0,0,1-10.56-1.137A70.667,70.667,0,0,1-55.9,0l2.319-48.067-.247-53.884a2.826,2.826,0,0,1,2.092-2.743l12.135-3.263.621-.168,3.66-.977a28.794,28.794,0,0,1,7.211-.959,28.723,28.723,0,0,1,7.2.959l4.024,1.084.8.212,11.592,3.113A2.825,2.825,0,0,1-2.4-101.949l-.24,53.883Z" fill="#77b72c"/>
      </g>
      <g id="g414" transform="translate(773.829 -412.919)">
        <path id="path416" d="M0,0S-6.577,30.449-12.088,40.984c0,0-3.031,14.819-13.561,51.192,0,0-5.5,2.188-8.712-1.989,0,0,5.089-39.988,8.159-52.773,0,0,13.219-47.2,19.9-50.189,0,0,5.576,3.2,6.3,12.776" fill="#77b72c"/>
      </g>
      <g id="g418" transform="translate(809.848 -412.919)">
        <path id="path420" d="M0,0S6.577,30.449,12.087,40.984c0,0,3.032,14.819,13.563,51.192,0,0,5.5,2.188,8.712-1.989,0,0-5.089-39.988-8.16-52.773,0,0-14.953-48.416-20.16-50.225C6.041-12.812.727-9.575,0,0" fill="#77b72c"/>
      </g>
      <g id="g422" transform="translate(802.943 -429.267)">
        <path id="path424" d="M0,0C-.968,5.631-3.171,15.179-12.549,14.708c-8.793-.435-9.5-11.9-9.548-14.815l3.66-.976a28.734,28.734,0,0,1,7.211-.96,28.655,28.655,0,0,1,7.2.96Z" fill="#f4b799"/>
      </g>
      <g id="g426">
        <g id="g440">
          <g id="g438" clip-path="url(#clip-path-6)">
            <g id="g436" transform="translate(817.274 -384.235)">
              <path id="path434" d="M0,0-3.735-2.965l2.461,4.824L-.092,9.735Z"/>
            </g>
          </g>
        </g>
      </g>
      <g id="g442">
        <g id="g456">
          <g id="g454" clip-path="url(#clip-path-7)">
            <g id="g452" transform="translate(766.18 -383.495)">
              <path id="path450" d="M0,0,3.715-2.917,1.253,1.905.052,9.972Z"/>
            </g>
          </g>
        </g>
      </g>
      <g id="g458" transform="translate(942.175 -321.249)">
        <path id="path460" d="M0,0A72.646,72.646,0,0,1-16.084,6.42,47.3,47.3,0,0,1-28.109,7.887a46,46,0,0,1-10.56-1.137A70.667,70.667,0,0,1-55.9,0l2.317-48.067-.247-53.884a2.826,2.826,0,0,1,2.092-2.743l12.136-3.263.621-.168,3.659-.977a28.8,28.8,0,0,1,7.212-.959,28.739,28.739,0,0,1,7.2.959l4.024,1.084.8.212,11.592,3.113A2.825,2.825,0,0,1-2.4-101.949l-.239,53.883Z" fill="#f4f2f3"/>
      </g>
      <g id="g462" transform="translate(896.178 -412.919)">
        <path id="path464" d="M0,0S-6.579,30.449-12.088,40.984c0,0-3.031,14.819-13.561,51.192,0,0-5.5,2.188-8.712-1.989,0,0,5.088-39.988,8.159-52.773,0,0,13.219-47.2,19.9-50.189,0,0,5.577,3.2,6.3,12.776" fill="#f4f2f3"/>
      </g>
      <g id="g466" transform="translate(932.195 -412.919)">
        <path id="path468" d="M0,0S6.579,30.449,12.088,40.984c0,0,3.031,14.819,13.561,51.192,0,0,5.5,2.188,8.712-1.989,0,0-5.089-39.988-8.159-52.773,0,0-14.955-48.416-20.161-50.225C6.041-12.812.727-9.575,0,0" fill="#f4f2f3"/>
      </g>
      <g id="g470" transform="translate(925.292 -429.267)">
        <path id="path472" d="M0,0C-.969,5.631-3.171,15.179-12.549,14.708c-8.793-.435-9.5-11.9-9.548-14.815l3.659-.976a28.744,28.744,0,0,1,7.212-.96,28.672,28.672,0,0,1,7.2.96Z" fill="#f4b799"/>
      </g>
      <g id="g474">
        <g id="g488">
          <g id="g486" clip-path="url(#clip-path-8)">
            <g id="g484" transform="translate(939.623 -384.235)">
              <path id="path482" d="M0,0-3.736-2.965l2.461,4.824L-.092,9.735Z"/>
            </g>
          </g>
        </g>
      </g>
      <g id="g490">
        <g id="g504">
          <g id="g502" clip-path="url(#clip-path-9)">
            <g id="g500" transform="translate(888.529 -383.495)">
              <path id="path498" d="M0,0,3.715-2.917,1.253,1.905.052,9.972Z"/>
            </g>
          </g>
        </g>
      </g>
      <g id="g506" transform="translate(907.394 -494.248)">
        <path id="path508" d="M0,0S-27.028,2.053-19.5,57.477H32.844S38.66-8.553,0,0" fill="#e8a613"/>
      </g>
      <g id="g510" transform="translate(900.18 -459.955)">
        <path id="path512" d="M0,0A4.1,4.1,0,0,1-4.508,3.651,4.1,4.1,0,0,1-8.159-.856,4.1,4.1,0,0,1-3.651-4.508,4.1,4.1,0,0,1,0,0" fill="#f4b799"/>
      </g>
      <g id="g514">
        <g id="g528">
          <g id="g526" opacity="0.6" clip-path="url(#clip-path-10)">
            <g id="g524" transform="translate(897.678 -460.383)">
              <path id="path522" d="M0,0A1.974,1.974,0,0,1-1.973,1.973,1.973,1.973,0,0,1-3.947,0,1.973,1.973,0,0,1-1.973-1.973,1.974,1.974,0,0,1,0,0"/>
            </g>
          </g>
        </g>
      </g>
      <g id="g530" transform="translate(933.612 -459.955)">
        <path id="path532" d="M0,0A4.1,4.1,0,0,1-4.508,3.651,4.1,4.1,0,0,1-8.159-.856,4.1,4.1,0,0,1-3.652-4.508,4.1,4.1,0,0,1,0,0" fill="#f4b799"/>
      </g>
      <g id="g534">
        <g id="g548">
          <g id="g546" opacity="0.6" clip-path="url(#clip-path-11)">
            <g id="g544" transform="translate(931.758 -460.383)">
              <path id="path542" d="M0,0A1.974,1.974,0,0,1-1.973,1.973,1.973,1.973,0,0,1-3.947,0,1.973,1.973,0,0,1-1.973-1.973,1.974,1.974,0,0,1,0,0"/>
            </g>
          </g>
        </g>
      </g>
      <g id="g550" transform="translate(913.644 -420.123)">
        <path id="path552" d="M0,0H0A8.259,8.259,0,0,1-8.207-8.313l.085-13.172L8.4-21.379,8.313-8.207A8.258,8.258,0,0,1,0,0" fill="#f4b799"/>
      </g>
      <g id="g554">
        <g id="g568">
          <g id="g566" opacity="0.6" clip-path="url(#clip-path-12)">
            <g id="g564" transform="translate(905.5 -438.26)">
              <path id="path562" d="M0,0A16.326,16.326,0,0,0,16.528-.84l-.016,2.248S7.165,6.635,0,0"/>
            </g>
          </g>
        </g>
      </g>
      <g id="g570" transform="translate(924.356 -482.031)">
        <path id="path572" d="M0,0C-8.615-9.577-24.559-5.147-27.288,7.443A51.412,51.412,0,0,0-28,27.127c2.845,15.8,13.024,22.248,24.107,16.741S7.691,15.805,3.755,6.033A20.4,20.4,0,0,0,0,0" fill="#f4b799"/>
      </g>
      <g id="g574" transform="translate(919.709 -449.245)">
        <path id="path576" d="M0,0A36.934,36.934,0,0,1-13.363.291s1.268,5.9,6.809,5.765A6.692,6.692,0,0,0,0,0" fill="#b22828"/>
      </g>
      <g id="g578" transform="translate(912.94 -446.268)">
        <path id="path580" d="M0,0C-4.259.092-5.548-1.647-6.105-2.6c5.02.877,9.036.2,12.535-.309C6.075-1.829,4.016-.087,0,0" fill="#fff"/>
      </g>
      <g id="g582">
        <g id="g596">
          <g id="g594" clip-path="url(#clip-path-13)">
            <g id="g592" transform="translate(912.826 -461.968)">
              <path id="path590" d="M0,0A7.443,7.443,0,0,0,1.4,4.3c.657.731,1.628,1.235,1.967,2.157A2.452,2.452,0,0,1,2.563,9.04,5.141,5.141,0,0,1-.063,10.109" fill="none" stroke="#000" stroke-linecap="round" stroke-linejoin="round" stroke-miterlimit="10" stroke-width="0.611"/>
            </g>
          </g>
        </g>
      </g>
      <g id="g598" transform="translate(908.098 -461.099)">
        <path id="path600" d="M0,0C0,1.107-.669,2-1.5,2s-1.5-.9-1.5-2,.671-2,1.5-2S0-1.107,0,0" fill="#3d1600"/>
      </g>
      <g id="g602" transform="translate(918.526 -461.099)">
        <path id="path604" d="M0,0C0,1.107.669,2,1.495,2s1.5-.9,1.5-2S2.324-2,1.5-2,0-1.107,0,0" fill="#3d1600"/>
      </g>
      <g id="g606" transform="translate(899.551 -455.744)">
        <path id="path608" d="M0,0S19.916,1.947,27.528-.355c0,0-1.969,11.817-1.439,13.676,0,0-11.559,16.731-24.629.265C1.46,13.587.427,1.431,0,0" fill="#fcfcfc"/>
      </g>
      <g id="g610" transform="translate(930.546 -464.817)">
        <path id="path612" d="M0,0-3.88,9.264" fill="none" stroke="#fcfcfc" stroke-linecap="round" stroke-linejoin="round" stroke-miterlimit="10" stroke-width="0.532"/>
      </g>
      <g id="g614" transform="translate(895.619 -464.817)">
        <path id="path616" d="M0,0,4.285,9.633" fill="none" stroke="#fcfcfc" stroke-linecap="round" stroke-linejoin="round" stroke-miterlimit="10" stroke-width="0.532"/>
      </g>
      <g id="g618" transform="translate(930.133 -456.378)">
        <path id="path620" d="M0,0S-.877,10.017-4.795,13.941" fill="none" stroke="#fcfcfc" stroke-linecap="round" stroke-linejoin="round" stroke-miterlimit="10" stroke-width="0.532"/>
      </g>
      <g id="g622" transform="translate(896.098 -456.378)">
        <path id="path624" d="M0,0S1.469,10.385,5.385,14.309" fill="none" stroke="#fcfcfc" stroke-linecap="round" stroke-linejoin="round" stroke-miterlimit="10" stroke-width="0.532"/>
      </g>
      <g id="g626" transform="translate(902.516 -452.439)">
        <path id="path628" d="M0,0S13.1,3.141,21.775-.088C21.775-.088,12.3,5.975,0,0" fill="#e5e5e5"/>
      </g>
      <g id="g630" transform="translate(903.8 -448.426)">
        <path id="path632" d="M0,0S10.969,2.632,18.233-.075C18.233-.075,10.3,5,0,0" fill="#e5e5e5"/>
      </g>
      <g id="g634" transform="translate(904.905 -444.371)">
        <path id="path636" d="M0,0S10.172,2.44,16.908-.069c0,0-7.355,4.708-16.908.069" fill="#e5e5e5"/>
      </g>
      <g id="g638" transform="translate(914.835 -476.372)">
        <path id="path640" d="M0,0S2.188,2.873,3.792,5A42.753,42.753,0,0,0,17.513,2.169S11.44-13.341-3.187-13.149-20.379,2.941-20.379,2.941A99.326,99.326,0,0,0-1.473,5.115Z" fill="#e8a613"/>
      </g>
      <g id="g642" transform="translate(918.489 -467.702)">
        <path id="path644" d="M0,0-.025.3a.9.9,0,0,0,.881.976l7.208.151A14.311,14.311,0,0,0,.92-.831.912.912,0,0,0,0,0" fill="#e8a613"/>
      </g>
      <g id="g646" transform="translate(909.718 -467.574)">
        <path id="path648" d="M0,0,.025.3a.9.9,0,0,1-.881.976l-7.208.151A14.3,14.3,0,0,1-.921-.831.913.913,0,0,1,0,0" fill="#e8a613"/>
      </g>
      <g id="g650" transform="translate(883.7 -321.946)">
        <path id="path652" d="M0,0A79.11,79.11,0,0,1-17.5,6.988,51.507,51.507,0,0,1-30.592,8.583,50.042,50.042,0,0,1-42.084,7.345,76.876,76.876,0,0,1-60.836,0l2.523-52.312-.271-58.641a3.079,3.079,0,0,1,2.279-2.984l13.207-3.551.676-.184,3.983-1.063a31.314,31.314,0,0,1,7.848-1.044,31.26,31.26,0,0,1,7.84,1.044l4.379,1.179.869.232,12.616,3.387a3.075,3.075,0,0,1,2.277,2.985l-.259,58.64Z" fill="#ff2852"/>
      </g>
      <g id="g654" transform="translate(833.64 -421.71)">
        <path id="path656" d="M0,0S-7.159,33.139-13.155,44.6c0,0-3.3,16.127-14.761,55.712,0,0-5.987,2.381-9.479-2.164,0,0,5.537-43.519,8.879-57.433,0,0,14.384-51.367,21.656-54.621C-6.86-13.9-.791-10.42,0,0" fill="#ff2852"/>
      </g>
      <g id="g658" transform="translate(872.839 -421.71)">
        <path id="path660" d="M0,0S7.159,33.139,13.156,44.6c0,0,3.3,16.127,14.76,55.712,0,0,5.987,2.381,9.48-2.164,0,0-5.537-43.519-8.879-57.433,0,0-16.276-52.692-21.941-54.661C6.576-13.944.792-10.42,0,0" fill="#ff2852"/>
      </g>
      <g id="g662" transform="translate(865.326 -439.502)">
        <path id="path664" d="M0,0C-1.053,6.128-3.452,16.519-13.659,16.007-23.228,15.533-24,3.055-24.049-.116l3.983-1.063a31.323,31.323,0,0,1,7.848-1.044,31.252,31.252,0,0,1,7.84,1.044Z" fill="#f4b799"/>
      </g>
      <g id="g666" transform="translate(851.301 -499.65)">
        <path id="path668" d="M0,0S-22.757,4.737-22.395,14.929-.9,44.688-.9,44.688s22.515-8.845,23.289-28.863C22.991.4,0,0,0,0" fill="#32324c"/>
      </g>
      <g id="g670" transform="translate(837.926 -471.624)">
        <path id="path672" d="M0,0A4.612,4.612,0,0,1-5.069,4.105,4.613,4.613,0,0,1-9.175-.963,4.612,4.612,0,0,1-4.107-5.068,4.613,4.613,0,0,1,0,0" fill="#f4b799"/>
      </g>
      <g id="g674">
        <g id="g688">
          <g id="g686" opacity="0.6" clip-path="url(#clip-path-14)">
            <g id="g684" transform="translate(835.111 -472.105)">
              <path id="path682" d="M0,0A2.219,2.219,0,0,1-2.219,2.219,2.219,2.219,0,0,1-4.437,0,2.22,2.22,0,0,1-2.219-2.22,2.22,2.22,0,0,1,0,0"/>
            </g>
          </g>
        </g>
      </g>
      <g id="g690" transform="translate(875.516 -471.624)">
        <path id="path692" d="M0,0A4.612,4.612,0,0,1-5.069,4.105,4.613,4.613,0,0,1-9.175-.963,4.614,4.614,0,0,1-4.105-5.068,4.613,4.613,0,0,1,0,0" fill="#f4b799"/>
      </g>
      <g id="g694">
        <g id="g708">
          <g id="g706" opacity="0.6" clip-path="url(#clip-path-15)">
            <g id="g704" transform="translate(873.431 -472.105)">
              <path id="path702" d="M0,0A2.219,2.219,0,0,1-2.219,2.219,2.219,2.219,0,0,1-4.437,0,2.22,2.22,0,0,1-2.219-2.22,2.22,2.22,0,0,1,0,0"/>
            </g>
          </g>
        </g>
      </g>
      <g id="g710" transform="translate(853.064 -426.837)">
        <path id="path712" d="M0,0H0A9.288,9.288,0,0,1-9.228-9.348l.095-14.811,18.577.12-.1,14.811A9.289,9.289,0,0,1,0,0" fill="#f4b799"/>
      </g>
      <g id="g714">
        <g id="g728">
          <g id="g726" opacity="0.6" clip-path="url(#clip-path-16)">
            <g id="g724" transform="translate(843.908 -447.23)">
              <path id="path722" d="M0,0A18.352,18.352,0,0,0,18.583-.945l-.016,2.528S8.056,7.459,0,0"/>
            </g>
          </g>
        </g>
      </g>
      <g id="g730" transform="translate(865.109 -496.445)">
        <path id="path732" d="M0,0C-9.687-10.769-27.613-5.788-30.683,8.368a57.778,57.778,0,0,0-.8,22.132c3.2,17.768,14.641,25.016,27.1,18.824s13.024-31.552,8.6-42.54A22.974,22.974,0,0,0,0,0" fill="#f4b799"/>
      </g>
      <g id="g734" transform="translate(859.883 -459.582)">
        <path id="path736" d="M0,0A41.568,41.568,0,0,1-15.027.327S-13.6,6.959-7.368,6.808A7.522,7.522,0,0,0,0,0" fill="#b22828"/>
      </g>
      <g id="g738" transform="translate(852.273 -456.234)">
        <path id="path740" d="M0,0C-4.788.1-6.237-1.852-6.863-2.92c5.643.987,10.159.225,14.093-.348C6.829-2.057,4.516-.1,0,0" fill="#fff"/>
      </g>
      <g id="g742">
        <g id="g756">
          <g id="g754" clip-path="url(#clip-path-17)">
            <g id="g752" transform="translate(852.98 -473.785)">
              <path id="path750" d="M0,0C-.184,1.716-.421,3.556-1.576,4.839c-.737.823-1.831,1.388-2.212,2.427a2.76,2.76,0,0,0,.908,2.9,5.782,5.782,0,0,0,2.951,1.2" fill="none" stroke="#000" stroke-linecap="round" stroke-linejoin="round" stroke-miterlimit="10" stroke-width="0.687"/>
            </g>
          </g>
        </g>
      </g>
      <g id="g758" transform="translate(846.539 -472.911)">
        <path id="path760" d="M0,0C0,1.244-.752,2.252-1.683,2.252S-3.365,1.245-3.365,0s.752-2.252,1.681-2.252S0-1.244,0,0" fill="#32324c"/>
      </g>
      <g id="g762" transform="translate(858.265 -472.911)">
        <path id="path764" d="M0,0C0,1.244.752,2.252,1.683,2.252S3.365,1.245,3.365,0,2.613-2.252,1.684-2.252,0-1.244,0,0" fill="#32324c"/>
      </g>
      <g id="g766" transform="translate(857.36 -480.663)">
        <path id="path768" d="M0,0-.215.777A.983.983,0,0,0,.813,1.953l8.515.109S7.715-.392,1.369-.869A1.3,1.3,0,0,0,0,0" fill="#32324c"/>
      </g>
      <g id="g770" transform="translate(848.046 -480.663)">
        <path id="path772" d="M0,0,.215.777A.983.983,0,0,1-.813,1.953l-8.515.109S-7.715-.392-1.369-.869A1.294,1.294,0,0,1,0,0" fill="#32324c"/>
      </g>
      <g id="g774">
        <g id="g788">
          <g id="g786" opacity="0.3" clip-path="url(#clip-path-18)">
            <g id="g784" transform="translate(833.129 -480.027)">
              <path id="path782" d="M0,0A9.024,9.024,0,0,0,5.265-7.879s19.043,3.881,27.7-.6c0,0,.316,8.291,5.433,8.773,0,0,1.733-13.849-9.613-15.84s-24.384.1-24.384.1L-.076-.613"/>
            </g>
          </g>
        </g>
      </g>
      <g id="g790" transform="translate(878.585 -499.592)">
        <path id="path792" d="M0,0S-7.093,16.488-37.832,11.133a9.384,9.384,0,0,1-7.259-6.688c-.98-3.367-.36-7.509,6.028-10.611,12.776-6.2,26.195,7.739,35.141-.244,0,0-1.217,6.888-6.013,8.425,0,0,5.869.885,9.935-2.016" fill="#32324c"/>
      </g>
      <g id="g794" transform="translate(867.051 -492.403)">
        <path id="path796" d="M0,0S0,10.085,4.512,12.673C4.512,12.673,8.627-.531,0,0" fill="#32324c"/>
      </g>
      <g id="g798" transform="translate(837.698 -492.816)">
        <path id="path800" d="M0,0S-.025,10.2-4.536,12.789C-4.536,12.789-8.625-.531,0,0" fill="#32324c"/>
      </g>
      <g id="g802" transform="translate(837.218 -466.889)">
        <path id="path804" d="M0,0S22.393,2.189,30.953-.4c0,0-2.215,13.288-1.617,15.377,0,0-13,18.811-27.695.3C1.641,15.277.48,1.609,0,0" fill="#fcfcfc"/>
      </g>
      <g id="g806" transform="translate(872.069 -477.091)">
        <path id="path808" d="M0,0-4.363,10.417" fill="none" stroke="#fcfcfc" stroke-linecap="round" stroke-linejoin="round" stroke-miterlimit="10" stroke-width="0.599"/>
      </g>
      <g id="g810" transform="translate(832.797 -477.091)">
        <path id="path812" d="M0,0,4.819,10.832" fill="none" stroke="#fcfcfc" stroke-linecap="round" stroke-linejoin="round" stroke-miterlimit="10" stroke-width="0.599"/>
      </g>
      <g id="g814" transform="translate(871.605 -467.602)">
        <path id="path816" d="M0,0S-.987,11.263-5.391,15.676" fill="none" stroke="#fcfcfc" stroke-linecap="round" stroke-linejoin="round" stroke-miterlimit="10" stroke-width="0.599"/>
      </g>
      <g id="g818" transform="translate(833.336 -467.602)">
        <path id="path820" d="M0,0S1.649,11.677,6.055,16.091" fill="none" stroke="#fcfcfc" stroke-linecap="round" stroke-linejoin="round" stroke-miterlimit="10" stroke-width="0.599"/>
      </g>
      <g id="g822" transform="translate(840.551 -463.173)">
        <path id="path824" d="M0,0S14.731,3.533,24.484-.1c0,0-10.649,6.819-24.484.1" fill="#e5e5e5"/>
      </g>
      <g id="g826" transform="translate(841.995 -458.661)">
        <path id="path828" d="M0,0S12.335,2.959,20.5-.083c0,0-8.917,5.708-20.5.083" fill="#e5e5e5"/>
      </g>
      <g id="g830" transform="translate(843.239 -454.101)">
        <path id="path832" d="M0,0S11.437,2.743,19.011-.077c0,0-8.268,5.293-19.011.077" fill="#e5e5e5"/>
      </g>
      <g id="g834">
        <g id="g848">
          <g id="g846" opacity="0.6" clip-path="url(#clip-path-19)">
            <g id="g844" transform="translate(880.921 -390.494)">
              <path id="path842" d="M0,0-4.064-3.227l2.679,5.249L-.1,10.593Z"/>
            </g>
          </g>
        </g>
      </g>
      <g id="g850">
        <g id="g864">
          <g id="g862" opacity="0.6" clip-path="url(#clip-path-20)">
            <g id="g860" transform="translate(825.317 -389.688)">
              <path id="path858" d="M0,0,4.043-3.176,1.363,2.073.056,10.853Z"/>
            </g>
          </g>
        </g>
      </g>
    </g>
  </g>
</svg>
