<svg xmlns="http://www.w3.org/2000/svg" xmlns:xlink="http://www.w3.org/1999/xlink" width="194.745" height="194.743" viewBox="0 0 194.745 194.743">
  <defs>
    <clipPath id="clip-path">
      <path id="path22" d="M53.117-438.831a97.372,97.372,0,0,0,97.372,97.373h0a97.373,97.373,0,0,0,97.373-97.373h0a97.372,97.372,0,0,0-97.373-97.37h0a97.371,97.371,0,0,0-97.372,97.37"/>
    </clipPath>
    <clipPath id="clip-path-2">
      <path id="path58" d="M121.464-480.644H127.4v5.935h-5.935Z"/>
    </clipPath>
    <clipPath id="clip-path-3">
      <path id="path78" d="M172.717-480.644h5.935v5.935h-5.935Z"/>
    </clipPath>
    <clipPath id="clip-path-4">
      <path id="path98" d="M139.164-445.671h24.855v6.321H139.164Z"/>
    </clipPath>
    <clipPath id="clip-path-5">
      <path id="path126" d="M145.6-480.384h6.252v16.123H145.6Z"/>
    </clipPath>
    <clipPath id="clip-path-6">
      <path id="path158" d="M124.648-510.209h51.587v22.335H124.648Z"/>
    </clipPath>
    <clipPath id="clip-path-7">
      <path id="path218" d="M183.233-372.84h5.437v18.485h-5.437Z"/>
    </clipPath>
    <clipPath id="clip-path-8">
      <path id="path234" d="M114.3-371.694h5.407v18.764H114.3Z"/>
    </clipPath>
  </defs>
  <g id="Mask" transform="translate(-53.117 536.201)">
    <g id="g20" clip-path="url(#clip-path)">
      <g id="g30" transform="translate(192.386 -276.843)">
        <path id="path32" d="M0,0A105.8,105.8,0,0,1-23.413,9.348a68.839,68.839,0,0,1-17.5,2.132A66.916,66.916,0,0,1-56.288,9.825C-64.432,7.989-72.46,4.668-81.368,0l3.375-69.965-.361-78.43a4.115,4.115,0,0,1,3.047-3.992l17.663-4.749.905-.245,5.325-1.423a41.969,41.969,0,0,1,10.5-1.395A41.856,41.856,0,0,1-30.432-158.8l5.856,1.579,1.163.309,16.875,4.529a4.116,4.116,0,0,1,3.047,3.993L-3.84-69.965Z" fill="#ff2852"/>
      </g>
      <g id="g34" transform="translate(125.432 -410.274)">
        <path id="path36" d="M0,0S-9.575,44.321-17.6,59.655c0,0-4.411,21.568-19.74,74.514,0,0-8.007,3.184-12.679-2.895,0,0,7.405-58.207,11.875-76.817,0,0,19.24-68.7,28.967-73.053,0,0,8.116,4.659,9.173,18.6" fill="#ff2852"/>
      </g>
      <g id="g38" transform="translate(177.86 -410.274)">
        <path id="path40" d="M0,0S9.575,44.321,17.6,59.655c0,0,4.411,21.568,19.739,74.514,0,0,8.008,3.184,12.68-2.895,0,0-7.405-58.207-11.875-76.817,0,0-21.768-70.474-29.345-73.108,0,0-7.737,4.713-8.795,18.651" fill="#ff2852"/>
      </g>
      <g id="g42" transform="translate(167.81 -434.07)">
        <path id="path44" d="M0,0C-1.409,8.2-4.615,22.093-18.267,21.408c-12.8-.633-13.833-17.323-13.9-21.564l5.327-1.421a41.892,41.892,0,0,1,10.5-1.4,41.8,41.8,0,0,1,10.484,1.4Z" fill="#f4b799"/>
      </g>
      <g id="g46" transform="translate(149.053 -514.518)">
        <path id="path48" d="M0,0S-30.439,6.336-29.951,19.968-1.2,59.769-1.2,59.769s30.112-11.831,31.148-38.6C30.749.532,0,0,0,0" fill="#32324c"/>
      </g>
      <g id="g50" transform="translate(131.164 -477.033)">
        <path id="path52" d="M0,0A6.167,6.167,0,0,1-6.779,5.491a6.166,6.166,0,0,1-5.491-6.777A6.17,6.17,0,0,1-5.491-6.779,6.168,6.168,0,0,1,0,0" fill="#f4b799"/>
      </g>
      <g id="g54">
        <g id="g68">
          <g id="g66" opacity="0.6" clip-path="url(#clip-path-2)">
            <g id="g64" transform="translate(127.399 -477.677)">
              <path id="path62" d="M0,0A2.969,2.969,0,0,1-2.968,2.968,2.968,2.968,0,0,1-5.935,0,2.968,2.968,0,0,1-2.968-2.968,2.969,2.969,0,0,1,0,0"/>
            </g>
          </g>
        </g>
      </g>
      <g id="g70" transform="translate(181.44 -477.033)">
        <path id="path72" d="M0,0A6.167,6.167,0,0,1-6.779,5.491a6.166,6.166,0,0,1-5.491-6.777A6.167,6.167,0,0,1-5.491-6.777,6.166,6.166,0,0,1,0,0" fill="#f4b799"/>
      </g>
      <g id="g74">
        <g id="g88">
          <g id="g86" opacity="0.6" clip-path="url(#clip-path-3)">
            <g id="g84" transform="translate(178.652 -477.677)">
              <path id="path82" d="M0,0A2.969,2.969,0,0,1-2.968,2.968,2.969,2.969,0,0,1-5.936,0,2.969,2.969,0,0,1-2.968-2.968,2.969,2.969,0,0,1,0,0"/>
            </g>
          </g>
        </g>
      </g>
      <g id="g90" transform="translate(151.411 -417.132)">
        <path id="path92" d="M0,0H0A12.422,12.422,0,0,1-12.343-12.5l.128-19.808,24.845.16L12.5-12.341A12.422,12.422,0,0,1,0,0" fill="#f4b799"/>
      </g>
      <g id="g94">
        <g id="g108">
          <g id="g106" opacity="0.6" clip-path="url(#clip-path-4)">
            <g id="g104" transform="translate(139.164 -444.407)">
              <path id="path102" d="M0,0A24.548,24.548,0,0,0,24.855-1.264l-.023,3.38S10.776,9.976,0,0"/>
            </g>
          </g>
        </g>
      </g>
      <g id="g110" transform="translate(167.52 -510.232)">
        <path id="path112" d="M0,0C-12.955-14.4-36.932-7.74-41.036,11.192c-1.843,8.493-2.969,19.059-1.071,29.6C-37.829,64.557-22.523,74.25-5.856,65.971s17.42-42.2,11.5-56.9A30.756,30.756,0,0,0,0,0" fill="#f4b799"/>
      </g>
      <g id="g114" transform="translate(160.531 -460.927)">
        <path id="path116" d="M0,0S-10.367,2.353-20.1.436c0,0,1.908,8.871,10.24,8.671C-2,8.92-.055,1.724,0,0" fill="#b22828"/>
      </g>
      <g id="g118" transform="translate(150.353 -456.45)">
        <path id="path120" d="M0,0C-6.4.139-8.343-2.476-9.181-3.905c7.548,1.32,13.588.3,18.851-.465C9.135-2.751,6.039-.131,0,0" fill="#fff"/>
      </g>
      <g id="g122">
        <g id="g136">
          <g id="g134" clip-path="url(#clip-path-5)">
            <g id="g132" transform="translate(151.298 -479.925)">
              <path id="path130" d="M0,0C-.247,2.3-.564,4.756-2.108,6.472c-.988,1.1-2.448,1.859-2.959,3.245A3.692,3.692,0,0,0-3.853,13.6,7.738,7.738,0,0,0,.093,15.2" fill="none" stroke="#000" stroke-linecap="round" stroke-linejoin="round" stroke-miterlimit="10" stroke-width="0.919"/>
            </g>
          </g>
        </g>
      </g>
      <g id="g138" transform="translate(142.685 -478.755)">
        <path id="path140" d="M0,0C0,1.664-1.007,3.013-2.249,3.013S-4.5,1.665-4.5,0-3.5-3.012-2.252-3.012,0-1.664,0,0" fill="#32324c"/>
      </g>
      <g id="g142" transform="translate(158.367 -478.755)">
        <path id="path144" d="M0,0C0,1.664,1.007,3.013,2.249,3.013S4.5,1.665,4.5,0,3.5-3.012,2.252-3.012,0-1.664,0,0" fill="#32324c"/>
      </g>
      <g id="g146" transform="translate(157.156 -489.123)">
        <path id="path148" d="M0,0-.287,1.039A1.315,1.315,0,0,0,1.088,2.612l11.389.147S10.319-.525,1.833-1.163A1.731,1.731,0,0,0,0,0" fill="#32324c"/>
      </g>
      <g id="g150" transform="translate(144.7 -489.123)">
        <path id="path152" d="M0,0,.287,1.039A1.314,1.314,0,0,1-1.088,2.612l-11.389.147S-10.319-.525-1.832-1.163A1.73,1.73,0,0,1,0,0" fill="#32324c"/>
      </g>
      <g id="g154">
        <g id="g168">
          <g id="g166" opacity="0.3" clip-path="url(#clip-path-6)">
            <g id="g164" transform="translate(124.748 -488.272)">
              <path id="path162" d="M0,0S6.911-2.884,7.044-10.539c0,0,25.469,5.192,37.051-.8,0,0,.421,11.088,7.267,11.735,0,0,2.317-18.524-12.859-21.185s-32.613.132-32.613.132L-.1-.821"/>
            </g>
          </g>
        </g>
      </g>
      <g id="g170" transform="translate(185.545 -514.44)">
        <path id="path172" d="M0,0S-9.489,22.052-50.6,14.891a12.552,12.552,0,0,1-9.709-8.945c-1.308-4.5-.481-10.044,8.063-14.191,17.089-8.295,35.033,10.349,47-.327,0,0-1.627,9.212-8.04,11.268,0,0,7.851,1.185,13.287-2.7" fill="#32324c"/>
      </g>
      <g id="g174" transform="translate(170.119 -504.825)">
        <path id="path176" d="M0,0S0,13.489,6.035,16.951c0,0,5.5-17.66-6.035-16.951" fill="#32324c"/>
      </g>
      <g id="g178" transform="translate(130.86 -505.377)">
        <path id="path180" d="M0,0S-.033,13.644-6.068,17.105C-6.068,17.105-11.537-.711,0,0" fill="#32324c"/>
      </g>
      <g id="g182" transform="translate(130.217 -470.701)">
        <path id="path184" d="M0,0S29.951,2.929,41.4-.532c0,0-2.961,17.771-2.163,20.567,0,0-17.383,25.159-37.04.4C2.2,20.433.643,2.152,0,0" fill="#fcfcfc"/>
      </g>
      <g id="g186" transform="translate(176.83 -484.345)">
        <path id="path188" d="M0,0-5.835,13.933" fill="none" stroke="#fcfcfc" stroke-linecap="round" stroke-linejoin="round" stroke-miterlimit="10" stroke-width="0.8"/>
      </g>
      <g id="g190" transform="translate(124.304 -484.345)">
        <path id="path192" d="M0,0,6.444,14.488" fill="none" stroke="#fcfcfc" stroke-linecap="round" stroke-linejoin="round" stroke-miterlimit="10" stroke-width="0.8"/>
      </g>
      <g id="g194" transform="translate(176.208 -471.654)">
        <path id="path196" d="M0,0S-1.32,15.064-7.211,20.965" fill="none" stroke="#fcfcfc" stroke-linecap="round" stroke-linejoin="round" stroke-miterlimit="10" stroke-width="0.8"/>
      </g>
      <g id="g198" transform="translate(125.026 -471.654)">
        <path id="path200" d="M0,0S2.207,15.619,8.1,21.52" fill="none" stroke="#fcfcfc" stroke-linecap="round" stroke-linejoin="round" stroke-miterlimit="10" stroke-width="0.8"/>
      </g>
      <g id="g202" transform="translate(134.676 -465.731)">
        <path id="path204" d="M0,0S19.7,4.725,32.747-.133C32.747-.133,18.5,8.985,0,0" fill="#e5e5e5"/>
      </g>
      <g id="g206" transform="translate(136.606 -459.695)">
        <path id="path208" d="M0,0S16.5,3.957,27.42-.112c0,0-11.925,7.636-27.42.112" fill="#e5e5e5"/>
      </g>
      <g id="g210" transform="translate(138.27 -453.597)">
        <path id="path212" d="M0,0S15.3,3.668,25.425-.1c0,0-11.059,7.08-25.425.1" fill="#e5e5e5"/>
      </g>
      <g id="g214">
        <g id="g228">
          <g id="g226" opacity="0.6" clip-path="url(#clip-path-7)">
            <g id="g224" transform="translate(188.669 -368.523)">
              <path id="path222" d="M0,0-5.436-4.317-1.853,2.7-.135,14.168Z"/>
            </g>
          </g>
        </g>
      </g>
      <g id="g230">
        <g id="g244">
          <g id="g242" opacity="0.6" clip-path="url(#clip-path-8)">
            <g id="g240" transform="translate(114.299 -367.446)">
              <path id="path238" d="M0,0,5.407-4.248,1.825,2.773.076,14.516Z"/>
            </g>
          </g>
        </g>
      </g>
    </g>
  </g>
</svg>
