<svg xmlns="http://www.w3.org/2000/svg" xmlns:xlink="http://www.w3.org/1999/xlink" width="194.746" height="194.743" viewBox="0 0 194.746 194.743">
  <defs>
    <clipPath id="clip-path">
      <path id="path1588" d="M286.122-438.831A97.373,97.373,0,0,0,383.5-341.458h0a97.372,97.372,0,0,0,97.372-97.373h0A97.371,97.371,0,0,0,383.5-536.2h0a97.373,97.373,0,0,0-97.374,97.37"/>
    </clipPath>
    <clipPath id="clip-path-2">
      <path id="path1642" d="M349.686-389.3H433.94v31.319H349.686Z"/>
    </clipPath>
    <clipPath id="clip-path-3">
      <path id="path1684" d="M383.424-470.212H397.4v1.719H383.424Z"/>
    </clipPath>
  </defs>
  <g id="Wash" transform="translate(-286.122 536.201)">
    <g id="g1586" clip-path="url(#clip-path)">
      <path id="path1596" d="M396.319-429.246H384.16v-39.585h12.159Z" fill="#c2d9f9"/>
      <g id="g1598" transform="translate(410.604 -394.017)">
        <path id="path1600" d="M0,0C-.873-3.508-11.548.3-17.371,1.2s-7.047.357-6.5-.389S-11.691-3.924-6.329-5.34,7.583-8.792,6.5-12.5s-9.533-1.023-16.836.693S-24.081-6.773-24.7-8.461s25.305-11.176,27.189-12,8.155-3.12,7.128-6.3S2.869-28.395-.1-27.535s-11.12,3.612-17.784,6.324-8.789,3.627-9.428,2.631S-13.529-28-8.2-30.907s9.535-6.908,6.768-9.611-12.435,3.755-18.195,7.069-15.692,9.049-20.121,10.4-8.164,3.464-8.524,1.045c-.112-.548-.221-.971-.3-1.235-.453-1.612,1.128-5.883,2.841-8.676s1.48-7.535.445-10.3-3.3-3.851-5.459,2.955S-58.7-24.044-62.985-20.425s-7.325,5.552-7.1,11.62C-70-6.811-111.668,6.075-117.834,7.716s4.512,26.105,9.4,24.319,45.628-21.351,48.484-19.525,5.588,2.193,14.613,1.077c4.512-.557,13.065-2.219,20.181-3.695,0,0,13.427-2.727,18.459-4.295S.873,3.508,0,0" fill="#dda68e"/>
      </g>
      <g id="g1602" transform="translate(387.255 -417.817)">
        <path id="path1604" d="M0,0A15.727,15.727,0,0,1-15.727,15.727,15.727,15.727,0,0,1-31.453,0,15.727,15.727,0,0,1-15.727-15.727,15.727,15.727,0,0,1,0,0" fill="#c2d9f9"/>
      </g>
      <g id="g1606" transform="translate(383.013 -404.955)">
        <path id="path1608" d="M0,0A17.44,17.44,0,0,1-17.441,17.441,17.44,17.44,0,0,1-34.883,0,17.441,17.441,0,0,1-17.441-17.443,17.441,17.441,0,0,1,0,0" fill="#c2d9f9"/>
      </g>
      <g id="g1610" transform="translate(387.121 -385.146)">
        <path id="path1612" d="M0,0A18.728,18.728,0,0,1-18.728,18.728,18.728,18.728,0,0,1-37.457,0,18.729,18.729,0,0,1-18.728-18.729,18.729,18.729,0,0,1,0,0" fill="#c2d9f9"/>
      </g>
      <g id="g1614" transform="translate(412.438 -376.707)">
        <path id="path1616" d="M0,0A18.728,18.728,0,0,1-18.728,18.728,18.728,18.728,0,0,1-37.457,0,18.729,18.729,0,0,1-18.728-18.729,18.729,18.729,0,0,1,0,0" fill="#c2d9f9"/>
      </g>
      <g id="g1618" transform="translate(433.918 -387.063)">
        <path id="path1620" d="M0,0A18.728,18.728,0,0,1-18.728,18.728,18.728,18.728,0,0,1-37.457,0,18.728,18.728,0,0,1-18.728-18.728,18.728,18.728,0,0,1,0,0" fill="#c2d9f9"/>
      </g>
      <g id="g1622" transform="translate(426.247 -407.777)">
        <path id="path1624" d="M0,0A18.729,18.729,0,0,1-18.729,18.729,18.729,18.729,0,0,1-37.457,0,18.729,18.729,0,0,1-18.729-18.728,18.729,18.729,0,0,1,0,0" fill="#c2d9f9"/>
      </g>
      <g id="g1626" transform="translate(417.964 -426.65)">
        <path id="path1628" d="M0,0A15.739,15.739,0,0,1-15.739,15.739,15.739,15.739,0,0,1-31.476,0,15.739,15.739,0,0,1-15.739-15.739,15.739,15.739,0,0,1,0,0" fill="#c2d9f9"/>
      </g>
      <g id="g1630" transform="translate(404.922 -421.664)">
        <path id="path1632" d="M0,0A15.739,15.739,0,0,1-15.739,15.739,15.739,15.739,0,0,1-31.476,0,15.737,15.737,0,0,1-15.739-15.737,15.738,15.738,0,0,1,0,0" fill="#c2d9f9"/>
      </g>
      <g id="g1634" transform="translate(403.388 -402.101)">
        <path id="path1636" d="M0,0A15.738,15.738,0,0,1-15.737,15.739,15.739,15.739,0,0,1-31.476,0,15.738,15.738,0,0,1-15.737-15.737,15.737,15.737,0,0,1,0,0" fill="#c2d9f9"/>
      </g>
      <g id="g1638">
        <g id="g1652">
          <g id="g1650" opacity="0.6" clip-path="url(#clip-path-2)">
            <g id="g1648" transform="translate(415.636 -373.424)">
              <path id="path1646" d="M0,0A18.748,18.748,0,0,1-4.475-.56,18.72,18.72,0,0,1-21.481,10.357a18.711,18.711,0,0,1-16.8-10.5A18.626,18.626,0,0,1-46.8,1.917,18.713,18.713,0,0,1-65.479-15.872a18.753,18.753,0,0,0-.471,4.151A18.727,18.727,0,0,0-47.221,7.007a18.626,18.626,0,0,0,8.512-2.06,18.709,18.709,0,0,0,16.8,10.5A18.716,18.716,0,0,0-4.9,4.528a18.68,18.68,0,0,0,4.475.561A18.73,18.73,0,0,0,18.305-13.639c0-.343-.015-.681-.033-1.02A18.726,18.726,0,0,1,0,0"/>
            </g>
          </g>
        </g>
      </g>
      <g id="g1654" transform="translate(430.538 -381.293)">
        <path id="path1656" d="M0,0C-.873-3.508-11.548.3-17.371,1.2s-7.047.357-6.5-.389S-11.691-3.924-6.329-5.34,7.583-8.792,6.5-12.5s-9.533-1.021-16.836.693S-24.081-6.773-24.7-8.461s25.305-11.176,27.189-12,8.155-3.12,7.128-6.3S2.869-28.395-.1-27.535s-11.12,3.612-17.784,6.324-8.789,3.627-9.428,2.631S-13.529-28-8.2-30.907s9.535-6.908,6.768-9.611-12.435,3.755-18.195,7.069-15.693,9.048-20.121,10.4-8.165,3.464-8.524,1.045c-.112-.548-.223-.971-.3-1.235-.453-1.612,1.128-5.883,2.841-8.676s1.48-7.535.445-10.3-3.3-3.851-5.46,2.955S-58.7-24.044-62.985-20.425s-7.325,5.552-7.1,11.62c.076,1.995-41.587,14.88-47.753,16.521s4.512,26.105,9.395,24.319,45.629-21.351,48.485-19.525,5.588,2.193,14.613,1.077c4.512-.557,13.065-2.219,20.181-3.695,0,0,13.427-2.727,18.459-4.295S.873,3.508,0,0" fill="#f4b799"/>
      </g>
      <g id="g1658" transform="translate(397.405 -465.036)">
        <path id="path1660" d="M0,0H-13.937V-29.052a5.486,5.486,0,0,0-5.48-5.48H-95.805l11.591-13.939h64.8A19.441,19.441,0,0,1,0-29.052Z" fill="#d7d8db"/>
      </g>
      <path id="path1662" d="M400.432-462.892H379.939v-5.665h20.493Z" fill="#d7d8db"/>
      <g id="g1664" transform="translate(433.501 -429.387)">
        <path id="path1666" d="M0,0A3.6,3.6,0,0,1-3.605,3.605,3.605,3.605,0,0,1-7.211,0,3.606,3.606,0,0,1-3.605-3.605,3.605,3.605,0,0,1,0,0" fill="#c2d9f9"/>
      </g>
      <g id="g1668" transform="translate(416.673 -359.262)">
        <path id="path1670" d="M0,0A2.189,2.189,0,0,1-2.189,2.189,2.19,2.19,0,0,1-4.379,0,2.19,2.19,0,0,1-2.189-2.189,2.189,2.189,0,0,1,0,0" fill="#c2d9f9"/>
      </g>
      <g id="g1672" transform="translate(376.663 -362.372)">
        <path id="path1674" d="M0,0A2.189,2.189,0,0,1-2.189,2.189,2.19,2.19,0,0,1-4.379,0,2.19,2.19,0,0,1-2.189-2.189,2.189,2.189,0,0,1,0,0" fill="#c2d9f9"/>
      </g>
      <g id="g1676" transform="translate(440.711 -399.31)">
        <path id="path1678" d="M0,0A1.943,1.943,0,0,1-1.943,1.944,1.943,1.943,0,0,1-3.885,0,1.942,1.942,0,0,1-1.943-1.943,1.942,1.942,0,0,1,0,0" fill="#c2d9f9"/>
      </g>
      <g id="g1680">
        <g id="g1692">
          <g id="g1690" opacity="0.6" clip-path="url(#clip-path-3)">
            <path id="path1688" d="M397.4-468.493H383.423v-1.72H397.4Z"/>
          </g>
        </g>
      </g>
    </g>
  </g>
</svg>
